<svg width="18" height="22" viewBox="0 0 18 22" fill="none" xmlns="http://www.w3.org/2000/svg">
<path d="M18 16.3782L16.9395 15.3191C16.656 15.0349 16.5 14.6577 16.5 14.2571V9.5C16.5 6.36908 14.5678 3.68686 11.836 2.56534C11.4408 1.37011 10.3262 0.5 9 0.5C7.67377 0.5 6.5592 1.37012 6.16397 2.56534C3.43221 3.68686 1.5 6.36908 1.5 9.5V14.2578C1.5 14.6526 1.3396 15.0386 1.06055 15.3184L0 16.3789V20H6.41721C6.9375 20.8924 7.89432 21.5 9 21.5C10.1057 21.5 11.0625 20.8924 11.5828 20H18V16.3782Z" fill="#000041"/>
</svg>
