<svg width="24" height="24" viewBox="0 0 24 24" fill="none" xmlns="http://www.w3.org/2000/svg">
<path d="M12 22C17.5228 22 22 17.5228 22 12C22 6.47715 17.5228 2 12 2C6.47715 2 2 6.47715 2 12C2 17.5228 6.47715 22 12 22Z" stroke="#10A00B" stroke-width="1.5"/>
<path d="M10.2857 7.5V15.4338C10.2857 16.0804 10.2857 16.4037 10.1093 16.4841C9.93296 16.5646 9.72538 16.336 9.31022 15.8788L8 14.4358M13.7143 16.5V8.56622C13.7143 7.91964 13.7143 7.59635 13.8907 7.51589C14.067 7.43543 14.2746 7.66404 14.6898 8.12124L16 9.56415" stroke="#10A00B" stroke-width="1.5" stroke-linecap="round" stroke-linejoin="round"/>
</svg>
