<svg width="20" height="20" viewBox="0 0 20 20" fill="none" xmlns="http://www.w3.org/2000/svg">
<path d="M2.63703 9.45806L3.33366 9.63223L3.71438 13.4171C3.92949 15.5556 4.03705 16.6249 4.75116 17.2707C5.46527 17.9166 6.53993 17.9166 8.68924 17.9166H11.3114C13.4607 17.9166 14.5354 17.9166 15.2495 17.2707C15.9636 16.6249 16.0712 15.5556 16.2862 13.4171L16.667 9.63223L17.3637 9.45806C17.9337 9.31556 18.3337 8.80331 18.3337 8.21566C18.3337 7.79777 18.1297 7.40616 17.7874 7.16652L10.9561 2.38459C10.3822 1.98289 9.61841 1.98289 9.04458 2.38459L2.21323 7.16652C1.87088 7.40616 1.66699 7.79777 1.66699 8.21566C1.66699 8.80331 2.06693 9.31556 2.63703 9.45806Z" fill="#10194E" stroke="#10194E" stroke-width="1.5" stroke-linecap="round" stroke-linejoin="round"/>
<path d="M12.5 13.3333C11.8337 13.852 10.9585 14.1666 10 14.1666C9.0415 14.1666 8.16627 13.852 7.5 13.3333" stroke="white" stroke-width="1.5" stroke-linecap="round"/>
</svg>
