<svg width="20" height="20" viewBox="0 0 20 20" fill="none" xmlns="http://www.w3.org/2000/svg">
<path d="M2.63703 9.45812L3.33366 9.63229L3.71438 13.4171C3.92949 15.5557 4.03705 16.625 4.75116 17.2708C5.46527 17.9167 6.53993 17.9167 8.68924 17.9167H11.3114C13.4607 17.9167 14.5354 17.9167 15.2495 17.2708C15.9636 16.625 16.0712 15.5557 16.2862 13.4171L16.667 9.63229L17.3637 9.45812C17.9337 9.31562 18.3337 8.80337 18.3337 8.21572C18.3337 7.79783 18.1297 7.40622 17.7874 7.16658L10.9561 2.38466C10.3822 1.98295 9.61841 1.98295 9.04458 2.38466L2.21323 7.16658C1.87088 7.40622 1.66699 7.79783 1.66699 8.21572C1.66699 8.80337 2.06693 9.31562 2.63703 9.45812Z" stroke="#10194E" stroke-width="1.5" stroke-linecap="round" stroke-linejoin="round"/>
<path d="M12.5 13.3334C11.8337 13.852 10.9585 14.1667 10 14.1667C9.0415 14.1667 8.16627 13.852 7.5 13.3334" stroke="#10194E" stroke-width="1.5" stroke-linecap="round"/>
</svg>
