<svg width="28" height="28" viewBox="0 0 28 28" fill="none" xmlns="http://www.w3.org/2000/svg">
<path d="M25.5037 6.29035C26.0018 7.57903 25.3033 8.46133 23.9515 9.33042C22.8606 10.0317 21.4709 10.7913 19.9983 12.0901C18.5548 13.3633 17.1459 14.8968 15.894 16.4062C14.6471 17.9095 13.5873 19.3503 12.8384 20.4172C12.3544 21.1066 11.6792 22.135 11.6792 22.135C11.203 22.8884 10.3468 23.3445 9.42874 23.3331C8.51051 23.3216 7.6671 22.8447 7.21149 22.0792C6.04683 20.1226 5.14813 19.3499 4.73507 19.0724C3.62985 18.3297 2.33301 18.2199 2.33301 16.489C2.33301 15.1146 3.49371 14.0003 4.92553 14.0003C5.9364 14.0376 6.87598 14.4351 7.70849 14.9947C8.24065 15.3522 8.80438 15.8252 9.39073 16.4477C10.0789 15.5092 10.9082 14.4261 11.8378 13.3054C13.1879 11.6779 14.7815 9.9319 16.4904 8.42465C18.1703 6.94297 20.1125 5.55603 22.1712 4.82274C23.5137 4.34459 25.0057 5.00167 25.5037 6.29035Z" stroke="#10A00B" stroke-width="1.5" stroke-linecap="round" stroke-linejoin="round"/>
</svg>
