<svg width="20" height="20" viewBox="0 0 20 20" fill="none" xmlns="http://www.w3.org/2000/svg">
<path d="M15.8333 8.75008V8.33337C15.8333 5.19072 15.8332 3.61934 14.8569 2.64303C13.8806 1.66675 12.3093 1.66675 9.16662 1.66675C6.02403 1.66675 4.45267 1.6668 3.47636 2.64307C2.50008 3.61937 2.50006 5.19068 2.50003 8.33331L2.5 12.0834C2.49998 14.8229 2.49997 16.1927 3.25657 17.1147C3.3951 17.2835 3.54988 17.4382 3.71869 17.5768C4.64064 18.3334 6.01041 18.3334 8.74995 18.3334" fill="#10194E"/>
<path d="M15.8333 8.75008V8.33337C15.8333 5.19072 15.8332 3.61934 14.857 2.64303C13.8806 1.66675 12.3093 1.66675 9.16662 1.66675C6.02403 1.66675 4.45267 1.6668 3.47636 2.64307C2.50008 3.61937 2.50006 5.19068 2.50003 8.33331L2.5 12.0834C2.49998 14.8229 2.49997 16.1927 3.25657 17.1147C3.3951 17.2835 3.54988 17.4382 3.71869 17.5768C4.64064 18.3334 6.01041 18.3334 8.74995 18.3334" stroke="#10194E" stroke-width="1.25" stroke-linecap="round" stroke-linejoin="round"/>
<path d="M5.83301 5.83325H12.4997M5.83301 9.16659H9.16634" stroke="white" stroke-width="1.25" stroke-linecap="round" stroke-linejoin="round"/>
<path d="M15 15.4166L13.75 14.9583V12.9166M10 14.5833C10 16.6543 11.6789 18.3333 13.75 18.3333C15.8211 18.3333 17.5 16.6543 17.5 14.5833C17.5 12.5122 15.8211 10.8333 13.75 10.8333C11.6789 10.8333 10 12.5122 10 14.5833Z" stroke="#10194E" stroke-width="1.25" stroke-linecap="round" stroke-linejoin="round"/>
</svg>
