<svg width="20" height="20" viewBox="0 0 20 20" fill="none" xmlns="http://www.w3.org/2000/svg">
<path d="M13.333 11.6667C13.333 12.357 13.8927 12.9167 14.583 12.9167C15.2733 12.9167 15.833 12.357 15.833 11.6667C15.833 10.9764 15.2733 10.4167 14.583 10.4167C13.8927 10.4167 13.333 10.9764 13.333 11.6667Z" stroke="#10194E" stroke-width="1.25"/>
<path d="M8.33366 5.83333H13.3337C15.6907 5.83333 16.8692 5.83333 17.6014 6.56557C18.3337 7.2978 18.3337 8.47633 18.3337 10.8333V12.5C18.3337 14.857 18.3337 16.0355 17.6014 16.7677C16.8692 17.5 15.6907 17.5 13.3337 17.5H8.33366C5.19096 17.5 3.61962 17.5 2.6433 16.5237C1.66699 15.5474 1.66699 13.976 1.66699 10.8333V9.16667C1.66699 6.02397 1.66699 4.45262 2.6433 3.47631C3.61962 2.5 5.19096 2.5 8.33366 2.5H11.667C12.442 2.5 12.8295 2.5 13.1474 2.58518C14.0101 2.81635 14.684 3.49022 14.9152 4.35295C15.0003 4.67087 15.0003 5.05836 15.0003 5.83333" stroke="#10194E" stroke-width="1.25" stroke-linecap="round"/>
</svg>
